mtllib model_0.mtl
o model_0
v -26.34945297241211 26.349327087402344 -0.0035294543486088514 
v -30.980802536010742 20.74105453491211 -0.0035294543486088514 
v -0.1533978432416916 0.1894521564245224 -0.0035294543486088514 
v -34.3819465637207 14.336769104003906 -0.0035294543486088514 
v -36.48052215576172 7.389749050140381 -0.0035294543486088514 
v -37.20417404174805 0.1894521564245224 -0.0035294543486088514 
v -36.48052215576172 -7.047027587890625 -0.0035294543486088514 
v -34.3819465637207 -13.994048118591309 -0.0035294543486088514 
v -30.980802536010742 -20.398332595825195 -0.0035294543486088514 
v -26.34945297241211 -26.006603240966797 -0.0035294543486088514 
v -20.741182327270508 -30.637950897216797 -0.0035294543486088514 
v -14.336897850036621 -34.03909683227539 -0.0035294543486088514 
v -7.3898773193359375 -36.137672424316406 -0.0035294543486088514 
v -0.1533978432416916 -36.861324310302734 -0.0035294543486088514 
v 7.046899318695068 -36.137672424316406 -0.0035294543486088514 
v 13.993919372558594 -34.03909683227539 -0.0035294543486088514 
v 20.398204803466797 -30.637950897216797 -0.0035294543486088514 
v 26.00647735595703 -26.006603240966797 -0.0035294543486088514 
v 30.6378231048584 -20.398332595825195 -0.0035294543486088514 
v 34.038970947265625 -13.994048118591309 -0.0035294543486088514 
v 36.13754653930664 -7.047027587890625 -0.0035294543486088514 
v 36.8611946105957 0.1894521564245224 -0.0035294543486088514 
v 36.13754653930664 7.389749050140381 -0.0035294543486088514 
v 34.038970947265625 14.336769104003906 -0.0035294543486088514 
v 30.6378231048584 20.74105453491211 -0.0035294543486088514 
v 26.00647735595703 26.349327087402344 -0.0035294543486088514 
v 20.398204803466797 30.98067283630371 -0.0035294543486088514 
v 13.993919372558594 34.38182067871094 -0.0035294543486088514 
v 7.046899318695068 36.48039627075195 -0.0035294543486088514 
v -0.1533978432416916 37.204044342041016 -0.0035294543486088514 
v -7.3898773193359375 36.48039627075195 -0.0035294543486088514 
v -14.336897850036621 34.38182067871094 -0.0035294543486088514 
v -20.741182327270508 30.98067283630371 -0.0035294543486088514 
v -7.3898773193359375 36.48039627075195 -1.2435024976730347 
v -0.1533978432416916 37.204044342041016 -0.0035294543486088514 
v -0.1533978432416916 37.204044342041016 -1.2435024976730347 
v 7.046899318695068 36.48039627075195 -0.0035294543486088514 
v 7.046899318695068 36.48039627075195 -1.2435024976730347 
v 13.993919372558594 34.38182067871094 -0.0035294543486088514 
v 13.993919372558594 34.38182067871094 -1.2435024976730347 
v 20.398204803466797 30.98067283630371 -0.0035294543486088514 
v 20.398204803466797 30.98067283630371 -1.2435024976730347 
v 26.00647735595703 26.349327087402344 -0.0035294543486088514 
v 26.00647735595703 26.349327087402344 -1.2435024976730347 
v 30.6378231048584 20.74105453491211 -0.0035294543486088514 
v 30.6378231048584 20.74105453491211 -1.2435024976730347 
v 34.038970947265625 14.336769104003906 -0.0035294543486088514 
v 34.038970947265625 14.336769104003906 -1.2435024976730347 
v 36.13754653930664 7.389749050140381 -0.0035294543486088514 
v 36.13754653930664 7.389749050140381 -1.2435024976730347 
v 36.8611946105957 0.1894521564245224 -0.0035294543486088514 
v 36.8611946105957 0.1894521564245224 -1.2435024976730347 
v 36.13754653930664 -7.047027587890625 -0.0035294543486088514 
v 36.13754653930664 -7.047027587890625 -1.2435024976730347 
v 34.038970947265625 -13.994048118591309 -0.0035294543486088514 
v 34.038970947265625 -13.994048118591309 -1.2435024976730347 
v 30.6378231048584 -20.398332595825195 -0.0035294543486088514 
v 30.6378231048584 -20.398332595825195 -1.2435024976730347 
v 26.00647735595703 -26.006603240966797 -0.0035294543486088514 
v 26.00647735595703 -26.006603240966797 -1.2435024976730347 
v 20.398204803466797 -30.637950897216797 -0.0035294543486088514 
v 20.398204803466797 -30.637950897216797 -1.2435024976730347 
v 13.993919372558594 -34.03909683227539 -0.0035294543486088514 
v 13.993919372558594 -34.03909683227539 -1.2435024976730347 
v 7.046899318695068 -36.137672424316406 -0.0035294543486088514 
v 7.046899318695068 -36.137672424316406 -1.2435024976730347 
v -0.1533978432416916 -36.861324310302734 -0.0035294543486088514 
v -0.1533978432416916 -36.861324310302734 -1.2435024976730347 
v -7.3898773193359375 -36.137672424316406 -0.0035294543486088514 
v -7.3898773193359375 -36.137672424316406 -1.2435024976730347 
v -14.336897850036621 -34.03909683227539 -0.0035294543486088514 
v -14.336897850036621 -34.03909683227539 -1.2435024976730347 
v -20.741182327270508 -30.637950897216797 -0.0035294543486088514 
v -20.741182327270508 -30.637950897216797 -1.2435024976730347 
v -26.34945297241211 -26.006603240966797 -0.0035294543486088514 
v -26.34945297241211 -26.006603240966797 -1.2435024976730347 
v -30.980802536010742 -20.398332595825195 -0.0035294543486088514 
v -30.980802536010742 -20.398332595825195 -1.2435024976730347 
v -34.3819465637207 -13.994048118591309 -0.0035294543486088514 
v -34.3819465637207 -13.994048118591309 -1.2435024976730347 
v -36.48052215576172 -7.047027587890625 -0.0035294543486088514 
v -36.48052215576172 -7.047027587890625 -1.2435024976730347 
v -37.20417404174805 0.1894521564245224 -0.0035294543486088514 
v -37.20417404174805 0.1894521564245224 -1.2435024976730347 
v -36.48052215576172 7.389749050140381 -0.0035294543486088514 
v -36.48052215576172 7.389749050140381 -1.2435024976730347 
v -34.3819465637207 14.336769104003906 -0.0035294543486088514 
v -34.3819465637207 14.336769104003906 -1.2435024976730347 
v -30.980802536010742 20.74105453491211 -0.0035294543486088514 
v -30.980802536010742 20.74105453491211 -1.2435024976730347 
v -26.34945297241211 26.349327087402344 -0.0035294543486088514 
v -26.34945297241211 26.349327087402344 -1.2435024976730347 
v -20.741182327270508 30.98067283630371 -0.0035294543486088514 
v -20.741182327270508 30.98067283630371 -1.2435024976730347 
v -14.336897850036621 34.38182067871094 -0.0035294543486088514 
v -14.336897850036621 34.38182067871094 -1.2435024976730347 
v -7.3898773193359375 36.48039627075195 -0.0035294543486088514 
v 7.046899318695068 36.48039627075195 -1.2435024976730347 
v 13.993919372558594 34.38182067871094 -1.2435024976730347 
v -0.1533978432416916 0.1894521564245224 -1.2435024976730347 
v 20.398204803466797 30.98067283630371 -1.2435024976730347 
v 26.00647735595703 26.349327087402344 -1.2435024976730347 
v 30.6378231048584 20.74105453491211 -1.2435024976730347 
v 34.038970947265625 14.336769104003906 -1.2435024976730347 
v 36.13754653930664 7.389749050140381 -1.2435024976730347 
v 36.8611946105957 0.1894521564245224 -1.2435024976730347 
v 36.13754653930664 -7.047027587890625 -1.2435024976730347 
v 34.038970947265625 -13.994048118591309 -1.2435024976730347 
v 30.6378231048584 -20.398332595825195 -1.2435024976730347 
v 26.00647735595703 -26.006603240966797 -1.2435024976730347 
v 20.398204803466797 -30.637950897216797 -1.2435024976730347 
v 13.993919372558594 -34.03909683227539 -1.2435024976730347 
v 7.046899318695068 -36.137672424316406 -1.2435024976730347 
v -0.1533978432416916 -36.861324310302734 -1.2435024976730347 
v -7.3898773193359375 -36.137672424316406 -1.2435024976730347 
v -14.336897850036621 -34.03909683227539 -1.2435024976730347 
v -20.741182327270508 -30.637950897216797 -1.2435024976730347 
v -26.34945297241211 -26.006603240966797 -1.2435024976730347 
v -30.980802536010742 -20.398332595825195 -1.2435024976730347 
v -34.3819465637207 -13.994048118591309 -1.2435024976730347 
v -36.48052215576172 -7.047027587890625 -1.2435024976730347 
v -37.20417404174805 0.1894521564245224 -1.2435024976730347 
v -36.48052215576172 7.389749050140381 -1.2435024976730347 
v -34.3819465637207 14.336769104003906 -1.2435024976730347 
v -30.980802536010742 20.74105453491211 -1.2435024976730347 
v -26.34945297241211 26.349327087402344 -1.2435024976730347 
v -20.741182327270508 30.98067283630371 -1.2435024976730347 
v -14.336897850036621 34.38182067871094 -1.2435024976730347 
v -7.3898773193359375 36.48039627075195 -1.2435024976730347 
v -0.1533978432416916 37.204044342041016 -1.2435024976730347 
vn 0 0 0.014718067832291126 
vn 0 0 0.014718067832291126 
vn 0 0 0.014718067832291126 
vn 0 0 0.014718067832291126 
vn 0 0 0.014718067832291126 
vn 0 0 0.014718067832291126 
vn 0 0 0.014718067832291126 
vn 0 0 0.014718067832291126 
vn 0 0 0.014718067832291126 
vn 0 0 0.014718067832291126 
vn 0 0 0.014718067832291126 
vn 0 0 0.014718067832291126 
vn 0 0 0.014718067832291126 
vn 0 0 0.014718067832291126 
vn 0 0 0.014718067832291126 
vn 0 0 0.014718067832291126 
vn 0 0 0.014718067832291126 
vn 0 0 0.014718067832291126 
vn 0 0 0.014718067832291126 
vn 0 0 0.014718067832291126 
vn 0 0 0.014718067832291126 
vn 0 0 0.014718067832291126 
vn 0 0 0.014718067832291126 
vn 0 0 0.014718067832291126 
vn 0 0 0.014718067832291126 
vn 0 0 0.014718067832291126 
vn 0 0 0.014718067832291126 
vn 0 0 0.014718067832291126 
vn 0 0 0.014718067832291126 
vn 0 0 0.014718067832291126 
vn 0 0 0.014718067832291126 
vn 0 0 0.014718067832291126 
vn 0 0 0.014718067832291126 
vn -0.0028713459614664316 0.014435229822993279 0.000032154475775314495 
vn -1.5220146564381759e-15 0.014718033373355865 0.000032154475775314495 
vn -1.5220146564381759e-15 0.014718033373355865 0.000032154475775314495 
vn 0.0028713459614664316 0.014435229822993279 0.000032154475775314495 
vn 0.0028713459614664316 0.014435229822993279 0.000032154475775314495 
vn 0.005632347427308559 0.013597688637673855 0.000032154475775314495 
vn 0.005632347427308559 0.013597688637673855 0.000032154475775314495 
vn 0.008176901377737522 0.01223759725689888 0.000032154475775314495 
vn 0.008176901377737522 0.01223759725689888 0.000032154475775314495 
vn 0.0104072205722332 0.0104072205722332 0.000032154475775314495 
vn 0.0104072205722332 0.0104072205722332 0.000032154475775314495 
vn 0.01223759725689888 0.008176901377737522 0.000032154475775314495 
vn 0.01223759725689888 0.008176901377737522 0.000032154475775314495 
vn 0.013597688637673855 0.005632347427308559 0.000032154475775314495 
vn 0.013597688637673855 0.005632347427308559 0.000032154475775314495 
vn 0.014435229822993279 0.0028713459614664316 0.000032154475775314495 
vn 0.014435229822993279 0.0028713459614664316 0.000032154475775314495 
vn 0.014718033373355865 0 0.000032154475775314495 
vn 0.014718033373355865 0 0.000032154475775314495 
vn 0.014435229822993279 -0.0028713459614664316 0.000032154475775314495 
vn 0.014435229822993279 -0.0028713459614664316 0.000032154475775314495 
vn 0.013597688637673855 -0.005632347427308559 0.000032154475775314495 
vn 0.013597688637673855 -0.005632347427308559 0.000032154475775314495 
vn 0.01223759725689888 -0.008176901377737522 0.000032154475775314495 
vn 0.01223759725689888 -0.008176901377737522 0.000032154475775314495 
vn 0.0104072205722332 -0.0104072205722332 0.000032154475775314495 
vn 0.0104072205722332 -0.0104072205722332 0.000032154475775314495 
vn 0.008176901377737522 -0.01223759725689888 0.000032154475775314495 
vn 0.008176901377737522 -0.01223759725689888 0.000032154475775314495 
vn 0.005632347427308559 -0.013597688637673855 0.000032154475775314495 
vn 0.005632347427308559 -0.013597688637673855 0.000032154475775314495 
vn 0.0028713459614664316 -0.014435229822993279 0.000032154475775314495 
vn 0.0028713459614664316 -0.014435229822993279 0.000032154475775314495 
vn 4.559508051335277e-15 -0.014718033373355865 0.000032154475775314495 
vn 4.559508051335277e-15 -0.014718033373355865 0.000032154475775314495 
vn -0.0028713459614664316 -0.014435229822993279 0.000032154475775314495 
vn -0.0028713459614664316 -0.014435229822993279 0.000032154475775314495 
vn -0.005632347427308559 -0.013597688637673855 0.000032154475775314495 
vn -0.005632347427308559 -0.013597688637673855 0.000032154475775314495 
vn -0.008176901377737522 -0.01223759725689888 0.000032154475775314495 
vn -0.008176901377737522 -0.01223759725689888 0.000032154475775314495 
vn -0.0104072205722332 -0.0104072205722332 0.000032154475775314495 
vn -0.0104072205722332 -0.0104072205722332 0.000032154475775314495 
vn -0.01223759725689888 -0.008176901377737522 0.000032154475775314495 
vn -0.01223759725689888 -0.008176901377737522 0.000032154475775314495 
vn -0.013597688637673855 -0.005632347427308559 0.000032154475775314495 
vn -0.013597688637673855 -0.005632347427308559 0.000032154475775314495 
vn -0.014435229822993279 -0.0028713459614664316 0.000032154475775314495 
vn -0.014435229822993279 -0.0028713459614664316 0.000032154475775314495 
vn -0.014718033373355865 -3.0440293128763517e-15 0.000032154475775314495 
vn -0.014718033373355865 -3.0440293128763517e-15 0.000032154475775314495 
vn -0.014435229822993279 0.0028713459614664316 0.000032154475775314495 
vn -0.014435229822993279 0.0028713459614664316 0.000032154475775314495 
vn -0.013597688637673855 0.005632347427308559 0.000032154475775314495 
vn -0.013597688637673855 0.005632347427308559 0.000032154475775314495 
vn -0.01223759725689888 0.008176901377737522 0.000032154475775314495 
vn -0.01223759725689888 0.008176901377737522 0.000032154475775314495 
vn -0.0104072205722332 0.0104072205722332 0.000032154475775314495 
vn -0.0104072205722332 0.0104072205722332 0.000032154475775314495 
vn -0.008176901377737522 0.01223759725689888 0.000032154475775314495 
vn -0.008176901377737522 0.01223759725689888 0.000032154475775314495 
vn -0.005632347427308559 0.013597688637673855 0.000032154475775314495 
vn -0.005632347427308559 0.013597688637673855 0.000032154475775314495 
vn -0.0028713459614664316 0.014435229822993279 0.000032154475775314495 
vn -3.0440367244146402e-15 0 -0.014718067832291126 
vn -3.0440367244146402e-15 0 -0.014718067832291126 
vn -3.0440367244146402e-15 0 -0.014718067832291126 
vn -3.0440367244146402e-15 0 -0.014718067832291126 
vn -3.0440367244146402e-15 0 -0.014718067832291126 
vn -3.0440367244146402e-15 0 -0.014718067832291126 
vn -3.0440367244146402e-15 0 -0.014718067832291126 
vn -3.0440367244146402e-15 0 -0.014718067832291126 
vn -3.0440367244146402e-15 0 -0.014718067832291126 
vn -3.0440367244146402e-15 0 -0.014718067832291126 
vn 3.0440367244146402e-15 6.295771099117085e-28 -0.014718067832291126 
vn 3.0440367244146402e-15 6.295771099117085e-28 -0.014718067832291126 
vn 3.0440367244146402e-15 6.295771099117085e-28 -0.014718067832291126 
vn 3.0440367244146402e-15 6.295771099117085e-28 -0.014718067832291126 
vn 3.0440367244146402e-15 6.295771099117085e-28 -0.014718067832291126 
vn 3.0440367244146402e-15 6.295771099117085e-28 -0.014718067832291126 
vn 3.0440367244146402e-15 6.295771099117085e-28 -0.014718067832291126 
vn 3.0440367244146402e-15 6.295771099117085e-28 -0.014718067832291126 
vn 3.0440367244146402e-15 6.295771099117085e-28 -0.014718067832291126 
vn 3.0440367244146402e-15 6.295771099117085e-28 -0.014718067832291126 
vn 3.0440367244146402e-15 6.295771099117085e-28 -0.014718067832291126 
vn 3.0440367244146402e-15 6.295771099117085e-28 -0.014718067832291126 
vn 3.0440367244146402e-15 6.295771099117085e-28 -0.014718067832291126 
vn -3.0440367244146402e-15 0 -0.014718067832291126 
vn -3.0440367244146402e-15 0 -0.014718067832291126 
vn -3.0440367244146402e-15 0 -0.014718067832291126 
vn -3.0440367244146402e-15 0 -0.014718067832291126 
vn -3.0440367244146402e-15 0 -0.014718067832291126 
vn -3.0440367244146402e-15 0 -0.014718067832291126 
vn -3.0440367244146402e-15 0 -0.014718067832291126 
vn -3.0440367244146402e-15 0 -0.014718067832291126 
vn -3.0440367244146402e-15 0 -0.014718067832291126 
vn -3.0440367244146402e-15 0 -0.014718067832291126 
s on 
f 1//1 2//2 3//3 
f 2//2 4//4 3//3 
f 3//3 4//4 5//5 
f 4//4 5//5 5//5 
f 5//5 5//5 5//5 
f 5//5 6//6 5//5 
f 5//5 6//6 3//3 
f 6//6 7//7 3//3 
f 3//3 7//7 8//8 
f 7//7 8//8 8//8 
f 8//8 8//8 8//8 
f 8//8 9//9 8//8 
f 8//8 9//9 3//3 
f 9//9 10//10 3//3 
f 3//3 10//10 11//11 
f 10//10 11//11 11//11 
f 11//11 11//11 11//11 
f 11//11 12//12 11//11 
f 11//11 12//12 3//3 
f 12//12 13//13 3//3 
f 3//3 13//13 14//14 
f 13//13 14//14 14//14 
f 14//14 14//14 14//14 
f 14//14 15//15 14//14 
f 14//14 15//15 3//3 
f 15//15 16//16 3//3 
f 3//3 16//16 17//17 
f 16//16 17//17 17//17 
f 17//17 17//17 17//17 
f 17//17 18//18 17//17 
f 17//17 18//18 3//3 
f 18//18 19//19 3//3 
f 3//3 19//19 20//20 
f 19//19 20//20 20//20 
f 20//20 20//20 20//20 
f 20//20 21//21 20//20 
f 20//20 21//21 3//3 
f 21//21 22//22 3//3 
f 3//3 22//22 23//23 
f 22//22 23//23 23//23 
f 23//23 23//23 23//23 
f 23//23 24//24 23//23 
f 23//23 24//24 3//3 
f 24//24 25//25 3//3 
f 3//3 25//25 26//26 
f 25//25 26//26 26//26 
f 26//26 26//26 26//26 
f 26//26 27//27 26//26 
f 26//26 27//27 3//3 
f 27//27 28//28 3//3 
f 3//3 28//28 29//29 
f 28//28 29//29 29//29 
f 29//29 29//29 29//29 
f 29//29 30//30 29//29 
f 29//29 30//30 3//3 
f 30//30 31//31 3//3 
f 3//3 31//31 32//32 
f 31//31 32//32 32//32 
f 32//32 32//32 32//32 
f 32//32 33//33 32//32 
f 32//32 33//33 3//3 
f 33//33 1//1 3//3 
f 3//3 1//1 1//1 
f 1//1 34//34 1//1 
f 1//1 34//34 34//34 
f 34//34 35//35 34//34 
f 34//34 35//35 36//36 
f 35//35 37//37 36//36 
f 36//36 37//37 38//38 
f 37//37 39//39 38//38 
f 38//38 39//39 40//40 
f 39//39 41//41 40//40 
f 40//40 41//41 42//42 
f 41//41 43//43 42//42 
f 42//42 43//43 44//44 
f 43//43 45//45 44//44 
f 44//44 45//45 46//46 
f 45//45 47//47 46//46 
f 46//46 47//47 48//48 
f 47//47 49//49 48//48 
f 48//48 49//49 50//50 
f 49//49 51//51 50//50 
f 50//50 51//51 52//52 
f 51//51 53//53 52//52 
f 52//52 53//53 54//54 
f 53//53 55//55 54//54 
f 54//54 55//55 56//56 
f 55//55 57//57 56//56 
f 56//56 57//57 58//58 
f 57//57 59//59 58//58 
f 58//58 59//59 60//60 
f 59//59 61//61 60//60 
f 60//60 61//61 62//62 
f 61//61 63//63 62//62 
f 62//62 63//63 64//64 
f 63//63 65//65 64//64 
f 64//64 65//65 66//66 
f 65//65 67//67 66//66 
f 66//66 67//67 68//68 
f 67//67 69//69 68//68 
f 68//68 69//69 70//70 
f 69//69 71//71 70//70 
f 70//70 71//71 72//72 
f 71//71 73//73 72//72 
f 72//72 73//73 74//74 
f 73//73 75//75 74//74 
f 74//74 75//75 76//76 
f 75//75 77//77 76//76 
f 76//76 77//77 78//78 
f 77//77 79//79 78//78 
f 78//78 79//79 80//80 
f 79//79 81//81 80//80 
f 80//80 81//81 82//82 
f 81//81 83//83 82//82 
f 82//82 83//83 84//84 
f 83//83 85//85 84//84 
f 84//84 85//85 86//86 
f 85//85 87//87 86//86 
f 86//86 87//87 88//88 
f 87//87 89//89 88//88 
f 88//88 89//89 90//90 
f 89//89 91//91 90//90 
f 90//90 91//91 92//92 
f 91//91 93//93 92//92 
f 92//92 93//93 94//94 
f 93//93 95//95 94//94 
f 94//94 95//95 96//96 
f 95//95 97//97 96//96 
f 96//96 97//97 34//34 
f 97//97 35//35 34//34 
f 34//34 35//35 35//35 
f 35//35 98//98 35//35 
f 35//35 98//98 98//98 
f 98//98 99//99 98//98 
f 98//98 99//99 100//100 
f 99//99 101//101 100//100 
f 100//100 101//101 102//102 
f 101//101 102//102 102//102 
f 102//102 102//102 102//102 
f 102//102 103//103 102//102 
f 102//102 103//103 100//100 
f 103//103 104//104 100//100 
f 100//100 104//104 105//105 
f 104//104 105//105 105//105 
f 105//105 105//105 105//105 
f 105//105 106//106 105//105 
f 105//105 106//106 100//100 
f 106//106 107//107 100//100 
f 100//100 107//107 108//108 
f 107//107 108//108 108//108 
f 108//108 108//108 108//108 
f 108//108 109//109 108//108 
f 108//108 109//109 100//100 
f 109//109 110//110 100//100 
f 100//100 110//110 111//111 
f 110//110 111//111 111//111 
f 111//111 111//111 111//111 
f 111//111 112//112 111//111 
f 111//111 112//112 100//100 
f 112//112 113//113 100//100 
f 100//100 113//113 114//114 
f 113//113 114//114 114//114 
f 114//114 114//114 114//114 
f 114//114 115//115 114//114 
f 114//114 115//115 100//100 
f 115//115 116//116 100//100 
f 100//100 116//116 117//117 
f 116//116 117//117 117//117 
f 117//117 117//117 117//117 
f 117//117 118//118 117//117 
f 117//117 118//118 100//100 
f 118//118 119//119 100//100 
f 100//100 119//119 120//120 
f 119//119 120//120 120//120 
f 120//120 120//120 120//120 
f 120//120 121//121 120//120 
f 120//120 121//121 100//100 
f 121//121 122//122 100//100 
f 100//100 122//122 123//123 
f 122//122 123//123 123//123 
f 123//123 123//123 123//123 
f 123//123 124//124 123//123 
f 123//123 124//124 100//100 
f 124//124 125//125 100//100 
f 100//100 125//125 126//126 
f 125//125 126//126 126//126 
f 126//126 126//126 126//126 
f 126//126 127//127 126//126 
f 126//126 127//127 100//100 
f 127//127 128//128 100//100 
f 100//100 128//128 129//129 
f 128//128 129//129 129//129 
f 129//129 129//129 129//129 
f 129//129 130//130 129//129 
f 129//129 130//130 100//100 
f 130//130 98//98 100//100 

