mtllib model_11.mtl
o model_11
v 11.02480697631836 2.877192974090576 5.657359600067139 
v 11.02480697631836 2.877192974090576 5.981971740722656 
v 10.807292938232422 2.5513477325439453 5.657359600067139 
v 10.807292938232422 2.5513477325439453 5.981971740722656 
v -5.323110103607178 2.64180850982666 -4.120667457580566 
v -5.323110103607178 2.64180850982666 -3.988372802734375 
v -5.323110103607178 2.5091261863708496 -4.120667457580566 
v -5.323110103607178 2.5091261863708496 -3.988372802734375 
v -5.323110103607178 2.64180850982666 -3.9568493366241455 
v -5.323110103607178 2.5091261863708496 -3.9568493366241455 
v -5.323110103607178 2.64180850982666 -3.988372802734375 
v -5.323110103607178 2.5091261863708496 -3.988372802734375 
v -5.323110103607178 2.5091261863708496 -4.152190685272217 
v -5.323110103607178 2.64180850982666 -4.152190685272217 
v -5.323110103607178 2.5091261863708496 -4.120667457580566 
v -5.323110103607178 2.64180850982666 -4.120667457580566 
v -6.350039958953857 2.64180850982666 -1.6511774063110352 
v -6.350039958953857 2.64180850982666 -1.5188827514648438 
v -6.350039958953857 2.5091261863708496 -1.6511774063110352 
v -6.350039958953857 2.5091261863708496 -1.5188827514648438 
v -6.350039958953857 2.64180850982666 -1.4873592853546143 
v -6.350039958953857 2.5091261863708496 -1.4873592853546143 
v -6.350039958953857 2.64180850982666 -1.5188827514648438 
v -6.350039958953857 2.5091261863708496 -1.5188827514648438 
v -6.350039958953857 2.5091261863708496 -1.682700753211975 
v -6.350039958953857 2.64180850982666 -1.682700753211975 
v -6.350039958953857 2.5091261863708496 -1.6511774063110352 
v -6.350039958953857 2.64180850982666 -1.6511774063110352 
v -8.564419746398926 2.64180850982666 0.8079646229743958 
v -8.564419746398926 2.64180850982666 0.9402592182159424 
v -8.564419746398926 2.5091261863708496 0.8079646229743958 
v -8.564419746398926 2.5091261863708496 0.9402592182159424 
v -8.564419746398926 2.64180850982666 0.9717826843261719 
v -8.564419746398926 2.5091261863708496 0.9717826843261719 
v -8.564419746398926 2.64180850982666 0.9402592182159424 
v -8.564419746398926 2.5091261863708496 0.9402592182159424 
v -8.564419746398926 2.5091261863708496 0.776441216468811 
v -8.564419746398926 2.64180850982666 0.776441216468811 
v -8.564419746398926 2.5091261863708496 0.8079646229743958 
v -8.564419746398926 2.64180850982666 0.8079646229743958 
v -11.1673002243042 2.64180850982666 3.273472547531128 
v -11.1673002243042 2.64180850982666 3.4057672023773193 
v -11.1673002243042 2.5091261863708496 3.273472547531128 
v -11.1673002243042 2.5091261863708496 3.4057672023773193 
v -11.1673002243042 2.64180850982666 3.437290668487549 
v -11.1673002243042 2.5091261863708496 3.437290668487549 
v -11.1673002243042 2.64180850982666 3.4057672023773193 
v -11.1673002243042 2.5091261863708496 3.4057672023773193 
v -11.1673002243042 2.5091261863708496 3.2419493198394775 
v -11.1673002243042 2.64180850982666 3.2419493198394775 
v -11.1673002243042 2.5091261863708496 3.273472547531128 
v -11.1673002243042 2.64180850982666 3.273472547531128 
v -5.41349983215332 2.64180850982666 5.737492561340332 
v -5.41349983215332 2.64180850982666 5.869787216186523 
v -5.41349983215332 2.5091261863708496 5.737492561340332 
v -5.41349983215332 2.5091261863708496 5.869787216186523 
v -5.41349983215332 2.64180850982666 5.901310443878174 
v -5.41349983215332 2.5091261863708496 5.901310443878174 
v -5.41349983215332 2.64180850982666 5.869787216186523 
v -5.41349983215332 2.5091261863708496 5.869787216186523 
v -5.41349983215332 2.5091261863708496 5.705969333648682 
v -5.41349983215332 2.64180850982666 5.705969333648682 
v -5.41349983215332 2.5091261863708496 5.737492561340332 
v -5.41349983215332 2.64180850982666 5.737492561340332 
v 11.02480697631836 2.877192974090576 -4.20080041885376 
v 11.02480697631836 2.877192974090576 -3.876188039779663 
v 10.807292938232422 2.5513477325439453 -4.20080041885376 
v 10.807292938232422 2.5513477325439453 -3.876188039779663 
v 11.02480697631836 2.877192974090576 -1.7313103675842285 
v 11.02480697631836 2.877192974090576 -1.4066981077194214 
v 10.807292938232422 2.5513477325439453 -1.7313103675842285 
v 10.807292938232422 2.5513477325439453 -1.4066981077194214 
v 11.02480697631836 2.877192974090576 0.7278266549110413 
v 11.02480697631836 2.877192974090576 1.0524388551712036 
v 10.807292938232422 2.5513477325439453 0.7278266549110413 
v 10.807292938232422 2.5513477325439453 1.0524388551712036 
v 11.02480697631836 2.877192974090576 3.1933295726776123 
v 11.02480697631836 2.877192974090576 3.517941951751709 
v 10.807292938232422 2.5513477325439453 3.1933295726776123 
v 10.807292938232422 2.5513477325439453 3.517941951751709 
vn 6.255263328552246 -4.2064642906188965 0.06748861074447632 
vn 6.255263328552246 -4.2064642906188965 0.06748861074447632 
vn 6.255263328552246 -4.2064642906188965 0.06748861074447632 
vn 6.255263328552246 -4.2064642906188965 0.06748861074447632 
vn 2.0448760986328125 1.723701927858201e-7 0.004467439837753773 
vn 2.0448760986328125 1.723701927858201e-7 0.004467439837753773 
vn 2.0448760986328125 1.723701927858201e-7 0.004467439837753773 
vn 2.0448760986328125 1.723701927858201e-7 0.004467439837753773 
vn 2.0448760986328125 1.723701927858201e-7 0.004467439837753773 
vn 2.0448760986328125 1.723701927858201e-7 0.004467439837753773 
vn 2.0448760986328125 1.723701927858201e-7 0.004467439837753773 
vn 2.0448760986328125 1.723701927858201e-7 0.004467439837753773 
vn 2.0448760986328125 1.723701927858201e-7 0.004467439837753773 
vn 2.0448760986328125 1.723701927858201e-7 0.004467439837753773 
vn 2.0448760986328125 1.723701927858201e-7 0.004467439837753773 
vn 2.0448760986328125 1.723701927858201e-7 0.004467439837753773 
vn 2.0448760986328125 1.723701927858201e-7 0.004467439837753773 
vn 2.0448760986328125 1.723701927858201e-7 0.004467439837753773 
vn 2.0448760986328125 1.723701927858201e-7 0.004467439837753773 
vn 2.0448760986328125 1.723701927858201e-7 0.004467439837753773 
vn 2.0448760986328125 1.723701927858201e-7 0.004467439837753773 
vn 2.0448760986328125 1.723701927858201e-7 0.004467439837753773 
vn 2.0448760986328125 1.723701927858201e-7 0.004467439837753773 
vn 2.0448760986328125 1.723701927858201e-7 0.004467439837753773 
vn 2.0448760986328125 1.723701927858201e-7 0.004467439837753773 
vn 2.0448760986328125 1.723701927858201e-7 0.004467439837753773 
vn 2.0448760986328125 1.723701927858201e-7 0.004467439837753773 
vn 2.0448760986328125 1.723701927858201e-7 0.004467439837753773 
vn 2.0448760986328125 1.723701927858201e-7 0.004467439837753773 
vn 2.0448760986328125 1.723701927858201e-7 0.004467439837753773 
vn 2.0448760986328125 1.723701927858201e-7 0.004467439837753773 
vn 2.0448760986328125 1.723701927858201e-7 0.004467439837753773 
vn 2.0448760986328125 1.723701927858201e-7 0.004467439837753773 
vn 2.0448760986328125 1.723701927858201e-7 0.004467439837753773 
vn 2.0448760986328125 1.723701927858201e-7 0.004467439837753773 
vn 2.0448760986328125 1.723701927858201e-7 0.004467439837753773 
vn 2.0448760986328125 1.723701927858201e-7 0.004467439837753773 
vn 2.0448760986328125 1.723701927858201e-7 0.004467439837753773 
vn 2.0448760986328125 1.723701927858201e-7 0.004467439837753773 
vn 2.0448760986328125 1.723701927858201e-7 0.004467439837753773 
vn 2.0448760986328125 1.723701927858201e-7 0.004467439837753773 
vn 2.0448760986328125 1.723701927858201e-7 0.004467439837753773 
vn 2.0448760986328125 1.723701927858201e-7 0.004467439837753773 
vn 2.0448760986328125 1.723701927858201e-7 0.004467439837753773 
vn 2.0448760986328125 1.723701927858201e-7 0.004467439837753773 
vn 2.0448760986328125 1.723701927858201e-7 0.004467439837753773 
vn 2.0448760986328125 1.723701927858201e-7 0.004467439837753773 
vn 2.0448760986328125 1.723701927858201e-7 0.004467439837753773 
vn 2.0448760986328125 1.723701927858201e-7 0.004467439837753773 
vn 2.0448760986328125 1.723701927858201e-7 0.004467439837753773 
vn 2.0448760986328125 1.723701927858201e-7 0.004467439837753773 
vn 2.0448760986328125 1.723701927858201e-7 0.004467439837753773 
vn 2.0448760986328125 1.723701927858201e-7 0.004467439837753773 
vn 2.0448760986328125 1.723701927858201e-7 0.004467439837753773 
vn 2.0448760986328125 1.723701927858201e-7 0.004467439837753773 
vn 2.0448760986328125 1.723701927858201e-7 0.004467439837753773 
vn 2.0448760986328125 1.723701927858201e-7 0.004467439837753773 
vn 2.0448760986328125 1.723701927858201e-7 0.004467439837753773 
vn 2.0448760986328125 1.723701927858201e-7 0.004467439837753773 
vn 2.0448760986328125 1.723701927858201e-7 0.004467439837753773 
vn 2.0448760986328125 1.723701927858201e-7 0.004467439837753773 
vn 2.0448760986328125 1.723701927858201e-7 0.004467439837753773 
vn 2.0448760986328125 1.723701927858201e-7 0.004467439837753773 
vn 2.0448760986328125 1.723701927858201e-7 0.004467439837753773 
vn 6.255263328552246 -4.2064642906188965 0.06748861074447632 
vn 6.255263328552246 -4.2064642906188965 0.06748861074447632 
vn 6.255263328552246 -4.2064642906188965 0.06748861074447632 
vn 6.255263328552246 -4.2064642906188965 0.06748861074447632 
vn 6.255263328552246 -4.2064642906188965 0.06748861074447632 
vn 6.255263328552246 -4.2064642906188965 0.06748861074447632 
vn 6.255263328552246 -4.2064642906188965 0.06748861074447632 
vn 6.255263328552246 -4.2064642906188965 0.06748861074447632 
vn 6.255263328552246 -4.2064642906188965 0.06748861074447632 
vn 6.255263328552246 -4.2064642906188965 0.06748861074447632 
vn 6.255263328552246 -4.2064642906188965 0.06748861074447632 
vn 6.255263328552246 -4.2064642906188965 0.06748861074447632 
vn 6.255263328552246 -4.2064642906188965 0.06748861074447632 
vn 6.255263328552246 -4.2064642906188965 0.06748861074447632 
vn 6.255263328552246 -4.2064642906188965 0.06748861074447632 
vn 6.255263328552246 -4.2064642906188965 0.06748861074447632 
vt 0.07355368137359619 0.41444894671440125 
vt 0.05584010109305382 0.41444894671440125 
vt 0.07355368137359619 0.375328004360199 
vt 0.05584010109305382 0.375328004360199 
vt 0.23179788887500763 0.4046405255794525 
vt 0.22002452611923218 0.4046405255794525 
vt 0.23179788887500763 0.38453298807144165 
vt 0.22002452611923218 0.38453298807144165 
vt 0.21731799840927124 0.4046405255794525 
vt 0.21731799840927124 0.38453298807144165 
vt 0.22002452611923218 0.4046405255794525 
vt 0.22002452611923218 0.38453298807144165 
vt 0.23450440168380737 0.38453298807144165 
vt 0.23450440168380737 0.4046405255794525 
vt 0.23179788887500763 0.38453298807144165 
vt 0.23179788887500763 0.4046405255794525 
vt 0.19149188697338104 0.4046405255794525 
vt 0.1797185242176056 0.4046405255794525 
vt 0.19149188697338104 0.38453298807144165 
vt 0.1797185242176056 0.38453298807144165 
vt 0.17701199650764465 0.4046405255794525 
vt 0.17701199650764465 0.38453298807144165 
vt 0.1797185242176056 0.4046405255794525 
vt 0.1797185242176056 0.38453298807144165 
vt 0.1941983997821808 0.38453298807144165 
vt 0.1941983997821808 0.4046405255794525 
vt 0.19149188697338104 0.38453298807144165 
vt 0.19149188697338104 0.4046405255794525 
vt 0.15041188895702362 0.4046405255794525 
vt 0.13863852620124817 0.4046405255794525 
vt 0.15041188895702362 0.38453298807144165 
vt 0.13863852620124817 0.38453298807144165 
vt 0.13593199849128723 0.4046405255794525 
vt 0.13593199849128723 0.38453298807144165 
vt 0.13863852620124817 0.4046405255794525 
vt 0.13863852620124817 0.38453298807144165 
vt 0.15311840176582336 0.38453298807144165 
vt 0.15311840176582336 0.4046405255794525 
vt 0.15041188895702362 0.38453298807144165 
vt 0.15041188895702362 0.4046405255794525 
vt 0.1093318834900856 0.4046405255794525 
vt 0.09755852073431015 0.4046405255794525 
vt 0.1093318834900856 0.38453298807144165 
vt 0.09755852073431015 0.38453298807144165 
vt 0.09485200047492981 0.4046405255794525 
vt 0.09485200047492981 0.38453298807144165 
vt 0.09755852073431015 0.4046405255794525 
vt 0.09755852073431015 0.38453298807144165 
vt 0.11203840374946594 0.38453298807144165 
vt 0.11203840374946594 0.4046405255794525 
vt 0.1093318834900856 0.38453298807144165 
vt 0.1093318834900856 0.4046405255794525 
vt 0.06980188190937042 0.4046405255794525 
vt 0.05802851915359497 0.4046405255794525 
vt 0.06980188190937042 0.38453298807144165 
vt 0.05802851915359497 0.38453298807144165 
vt 0.05532199889421463 0.4046405255794525 
vt 0.05532199889421463 0.38453298807144165 
vt 0.05802851915359497 0.4046405255794525 
vt 0.05802851915359497 0.38453298807144165 
vt 0.07250840216875076 0.38453298807144165 
vt 0.07250840216875076 0.4046405255794525 
vt 0.06980188190937042 0.38453298807144165 
vt 0.06980188190937042 0.4046405255794525 
vt 0.23554958403110504 0.41444894671440125 
vt 0.21783599257469177 0.41444894671440125 
vt 0.23554958403110504 0.375328004360199 
vt 0.21783599257469177 0.375328004360199 
vt 0.19524358212947845 0.41444894671440125 
vt 0.17753000557422638 0.41444894671440125 
vt 0.19524358212947845 0.375328004360199 
vt 0.17753000557422638 0.375328004360199 
vt 0.15416358411312103 0.41444894671440125 
vt 0.13644999265670776 0.41444894671440125 
vt 0.15416358411312103 0.375328004360199 
vt 0.13644999265670776 0.375328004360199 
vt 0.11308367550373077 0.41444894671440125 
vt 0.0953700989484787 0.41444894671440125 
vt 0.11308367550373077 0.375328004360199 
vt 0.0953700989484787 0.375328004360199 
s on 
f 1/1/1 2/2/2 3/3/3 
f 2/2/2 4/4/4 3/3/3 
f 3/3/3 4/4/4 4/4/4 
f 4/4/4 5/5/5 4/4/4 
f 4/4/4 5/5/5 5/5/5 
f 5/5/5 6/6/6 5/5/5 
f 5/5/5 6/6/6 7/7/7 
f 6/6/6 8/8/8 7/7/7 
f 7/7/7 8/8/8 8/8/8 
f 8/8/8 9/9/9 8/8/8 
f 8/8/8 9/9/9 9/9/9 
f 9/9/9 10/10/10 9/9/9 
f 9/9/9 10/10/10 11/11/11 
f 10/10/10 12/12/12 11/11/11 
f 11/11/11 12/12/12 12/12/12 
f 12/12/12 13/13/13 12/12/12 
f 12/12/12 13/13/13 13/13/13 
f 13/13/13 14/14/14 13/13/13 
f 13/13/13 14/14/14 15/15/15 
f 14/14/14 16/16/16 15/15/15 
f 15/15/15 16/16/16 16/16/16 
f 16/16/16 17/17/17 16/16/16 
f 16/16/16 17/17/17 17/17/17 
f 17/17/17 18/18/18 17/17/17 
f 17/17/17 18/18/18 19/19/19 
f 18/18/18 20/20/20 19/19/19 
f 19/19/19 20/20/20 20/20/20 
f 20/20/20 21/21/21 20/20/20 
f 20/20/20 21/21/21 21/21/21 
f 21/21/21 22/22/22 21/21/21 
f 21/21/21 22/22/22 23/23/23 
f 22/22/22 24/24/24 23/23/23 
f 23/23/23 24/24/24 24/24/24 
f 24/24/24 25/25/25 24/24/24 
f 24/24/24 25/25/25 25/25/25 
f 25/25/25 26/26/26 25/25/25 
f 25/25/25 26/26/26 27/27/27 
f 26/26/26 28/28/28 27/27/27 
f 27/27/27 28/28/28 28/28/28 
f 28/28/28 29/29/29 28/28/28 
f 28/28/28 29/29/29 29/29/29 
f 29/29/29 30/30/30 29/29/29 
f 29/29/29 30/30/30 31/31/31 
f 30/30/30 32/32/32 31/31/31 
f 31/31/31 32/32/32 32/32/32 
f 32/32/32 33/33/33 32/32/32 
f 32/32/32 33/33/33 33/33/33 
f 33/33/33 34/34/34 33/33/33 
f 33/33/33 34/34/34 35/35/35 
f 34/34/34 36/36/36 35/35/35 
f 35/35/35 36/36/36 36/36/36 
f 36/36/36 37/37/37 36/36/36 
f 36/36/36 37/37/37 37/37/37 
f 37/37/37 38/38/38 37/37/37 
f 37/37/37 38/38/38 39/39/39 
f 38/38/38 40/40/40 39/39/39 
f 39/39/39 40/40/40 40/40/40 
f 40/40/40 41/41/41 40/40/40 
f 40/40/40 41/41/41 41/41/41 
f 41/41/41 42/42/42 41/41/41 
f 41/41/41 42/42/42 43/43/43 
f 42/42/42 44/44/44 43/43/43 
f 43/43/43 44/44/44 44/44/44 
f 44/44/44 45/45/45 44/44/44 
f 44/44/44 45/45/45 45/45/45 
f 45/45/45 46/46/46 45/45/45 
f 45/45/45 46/46/46 47/47/47 
f 46/46/46 48/48/48 47/47/47 
f 47/47/47 48/48/48 48/48/48 
f 48/48/48 49/49/49 48/48/48 
f 48/48/48 49/49/49 49/49/49 
f 49/49/49 50/50/50 49/49/49 
f 49/49/49 50/50/50 51/51/51 
f 50/50/50 52/52/52 51/51/51 
f 51/51/51 52/52/52 52/52/52 
f 52/52/52 53/53/53 52/52/52 
f 52/52/52 53/53/53 53/53/53 
f 53/53/53 54/54/54 53/53/53 
f 53/53/53 54/54/54 55/55/55 
f 54/54/54 56/56/56 55/55/55 
f 55/55/55 56/56/56 56/56/56 
f 56/56/56 57/57/57 56/56/56 
f 56/56/56 57/57/57 57/57/57 
f 57/57/57 58/58/58 57/57/57 
f 57/57/57 58/58/58 59/59/59 
f 58/58/58 60/60/60 59/59/59 
f 59/59/59 60/60/60 60/60/60 
f 60/60/60 61/61/61 60/60/60 
f 60/60/60 61/61/61 61/61/61 
f 61/61/61 62/62/62 61/61/61 
f 61/61/61 62/62/62 63/63/63 
f 62/62/62 64/64/64 63/63/63 
f 63/63/63 64/64/64 64/64/64 
f 64/64/64 65/65/65 64/64/64 
f 64/64/64 65/65/65 65/65/65 
f 65/65/65 66/66/66 65/65/65 
f 65/65/65 66/66/66 67/67/67 
f 66/66/66 68/68/68 67/67/67 
f 67/67/67 68/68/68 68/68/68 
f 68/68/68 69/69/69 68/68/68 
f 68/68/68 69/69/69 69/69/69 
f 69/69/69 70/70/70 69/69/69 
f 69/69/69 70/70/70 71/71/71 
f 70/70/70 72/72/72 71/71/71 
f 71/71/71 72/72/72 72/72/72 
f 72/72/72 73/73/73 72/72/72 
f 72/72/72 73/73/73 73/73/73 
f 73/73/73 74/74/74 73/73/73 
f 73/73/73 74/74/74 75/75/75 
f 74/74/74 76/76/76 75/75/75 
f 75/75/75 76/76/76 76/76/76 
f 76/76/76 77/77/77 76/76/76 
f 76/76/76 77/77/77 77/77/77 
f 77/77/77 78/78/78 77/77/77 
f 77/77/77 78/78/78 79/79/79 
f 78/78/78 80/80/80 79/79/79 

