mtllib model_1.mtl
o model_1
v 15.242252349853516 -0.2190152406692505 8.728241920471191 
v 15.242252349853516 -0.2190152406692505 7.102108001708984 
v 9.26512622833252 -0.2190152406692505 8.728241920471191 
v 9.26512622833252 -0.2190152406692505 7.148569107055664 
v 9.26512622833252 -0.2190152406692505 -5.426873207092285 
v 15.242252349853516 -0.2190152406692505 -5.426873207092285 
v 15.242252349853516 -0.2190152406692505 -7.053008079528809 
v 9.26512622833252 -0.2190152406692505 -7.053008079528809 
v 13.92243766784668 -0.21875092387199402 -7.053008079528809 
v 12.585103034973145 -0.21875092387199402 -7.053008079528809 
v 13.92243766784668 -0.21875092387199402 -7.122699737548828 
v 12.585103034973145 -0.21875092387199402 -7.122699737548828 
vn -7.460595048648308e-15 0.18694864213466644 0.00040842656744644046 
vn -7.460595048648308e-15 0.18694864213466644 0.00040842656744644046 
vn -7.460595048648308e-15 0.18694864213466644 0.00040842656744644046 
vn -7.460595048648308e-15 0.18694864213466644 0.00040842656744644046 
vn -7.460595048648308e-15 0.18694864213466644 0.00040842656744644046 
vn -7.460595048648308e-15 0.18694864213466644 0.00040842656744644046 
vn -7.460595048648308e-15 0.18694864213466644 0.00040842656744644046 
vn -7.460595048648308e-15 0.18694864213466644 0.00040842656744644046 
vn -7.460595048648308e-15 0.18694864213466644 0.00040842656744644046 
vn -7.460595048648308e-15 0.18694864213466644 0.00040842656744644046 
vn -7.460595048648308e-15 0.18694864213466644 0.00040842656744644046 
vn -7.460595048648308e-15 0.18694864213466644 0.00040842656744644046 
vt 0.7417840957641602 0.5121738910675049 
vt 0.7417840957641602 0.48213860392570496 
vt 0.9973809719085693 0.5121738910675049 
vt 0.9973809719085693 0.48213860392570496 
vt 0.9973809719085693 0.034953612834215164 
vt 0.7417840957641602 0.034953612834215164 
vt 0.7417840957641602 0.004918340127915144 
vt 0.9973809719085693 0.004918340127915144 
vt 0.5314130187034607 0.27393531799316406 
vt 0.5314130187034607 0.44460996985435486 
vt 0.5423354506492615 0.27393531799316406 
vt 0.5423354506492615 0.44460996985435486 
s on 
f 1/1/1 2/2/2 3/3/3 
f 2/2/2 2/2/2 3/3/3 
f 3/3/3 2/2/2 4/4/4 
f 2/2/2 2/2/2 4/4/4 
f 4/4/4 2/2/2 5/5/5 
f 2/2/2 6/6/6 5/5/5 
f 5/5/5 6/6/6 5/5/5 
f 6/6/6 7/7/7 5/5/5 
f 5/5/5 7/7/7 8/8/8 
f 7/7/7 8/8/8 8/8/8 
f 8/8/8 8/8/8 9/9/9 
f 8/8/8 9/9/9 9/9/9 
f 9/9/9 9/9/9 10/10/10 
f 9/9/9 11/11/11 10/10/10 
f 10/10/10 11/11/11 12/12/12 

